P3
48 30
255
0
48
255
0
48
255
0
48
255
0
48
255
0
48
255
0
48
255
0
48
255
0
48
255
0
48
255
0
48
255
0
48
255
0
48
255
0
48
255
0
48
255
0
66
244
255
255
0
255
255
0
255
255
0
255
255
0
255
255
0
255
255
0
0
44
255
0
48
255
0
48
255
0
48
255
0
48
255
0
48
255
0
48
255
0
48
255
0
48
255
0
48
255
0
48
255
0
48
255
0
48
255
0
48
255
0
48
255
0
48
255
0
48
255
0
48
255
0
48
255
0
48
255
0
48
255
0
48
255
0
48
255
0
48
255
0
48
255
0
48
255
0
48
255
0
48
255
0
48
255
0
48
255
0
48
255
0
48
255
0
48
255
0
48
255
0
48
255
0
48
255
0
48
255
0
48
255
0
48
255
0
48
255
0
48
255
0
66
244
255
255
0
255
255
0
255
255
0
255
255
0
255
255
0
255
255
0
0
44
255
0
48
255
0
48
255
0
48
255
0
48
255
0
48
255
0
48
255
0
48
255
0
48
255
0
48
255
0
48
255
0
48
255
0
48
255
0
48
255
0
48
255
0
48
255
0
48
255
0
48
255
0
48
255
0
48
255
0
48
255
0
48
255
0
48
255
0
48
255
0
48
255
0
48
255
0
48
255
0
48
255
0
48
255
0
48
255
0
48
255
0
48
255
0
48
255
0
48
255
0
48
255
0
48
255
0
48
255
0
48
255
0
48
255
0
48
255
0
48
255
0
66
244
255
255
0
255
255
0
255
255
0
255
255
0
255
255
0
255
255
0
0
44
255
0
48
255
0
48
255
0
48
255
0
48
255
0
48
255
0
48
255
0
48
255
0
48
255
0
48
255
0
48
255
0
48
255
0
48
255
0
48
255
0
48
255
0
48
255
0
48
255
0
48
255
0
48
255
0
48
255
0
48
255
0
48
255
0
48
255
0
48
255
0
48
255
0
48
255
0
48
255
0
48
255
0
48
255
0
48
255
0
48
255
0
48
255
0
48
255
0
48
255
0
48
255
0
48
255
0
48
255
0
48
255
0
48
255
0
48
255
0
48
255
0
66
244
255
255
0
255
255
0
255
255
0
255
255
0
255
255
0
255
255
0
0
44
255
0
48
255
0
48
255
0
48
255
0
48
255
0
48
255
0
48
255
0
48
255
0
48
255
0
48
255
0
48
255
0
48
255
0
48
255
0
48
255
0
48
255
0
48
255
0
48
255
0
48
255
0
48
255
0
48
255
0
48
255
0
48
255
0
48
255
0
48
255
0
48
255
0
48
255
0
48
255
0
48
255
0
48
255
0
48
255
0
48
255
0
48
255
0
48
255
0
48
255
0
48
255
0
48
255
0
48
255
0
48
255
0
48
255
0
48
255
0
48
255
0
66
244
255
255
0
255
255
0
255
255
0
255
255
0
255
255
0
255
255
0
0
44
255
0
48
255
0
48
255
0
48
255
0
48
255
0
48
255
0
48
255
0
48
255
0
48
255
0
48
255
0
48
255
0
48
255
0
48
255
0
48
255
0
48
255
0
48
255
0
48
255
0
48
255
0
48
255
0
48
255
0
48
255
0
48
255
0
48
255
0
48
255
0
48
255
0
48
255
0
48
255
0
48
255
0
48
255
0
48
255
0
48
255
0
48
255
0
48
255
0
48
255
0
48
255
0
48
255
0
48
255
0
48
255
0
48
255
0
48
255
0
48
255
0
66
244
255
255
0
255
255
0
255
255
0
255
255
0
255
255
0
255
255
0
0
44
255
0
48
255
0
48
255
0
48
255
0
48
255
0
48
255
0
48
255
0
48
255
0
48
255
0
48
255
0
48
255
0
48
255
0
48
255
0
48
255
0
48
255
0
48
255
0
48
255
0
48
255
0
48
255
0
48
255
0
48
255
0
48
255
0
48
255
0
48
255
0
48
255
0
48
255
0
48
255
0
48
255
0
48
255
0
48
255
0
48
255
0
48
255
0
48
255
0
48
255
0
48
255
0
48
255
0
48
255
0
48
255
0
48
255
0
48
255
0
48
255
0
66
244
255
255
0
255
255
0
255
255
0
255
255
0
255
255
0
255
255
0
0
44
255
0
48
255
0
48
255
0
48
255
0
48
255
0
48
255
0
48
255
0
48
255
0
48
255
0
48
255
0
48
255
0
48
255
0
48
255
0
48
255
0
48
255
0
48
255
0
48
255
0
48
255
0
48
255
0
48
255
0
48
255
0
48
255
0
48
255
0
48
255
0
48
255
0
48
255
0
48
255
0
48
255
0
48
255
0
48
255
0
48
255
0
48
255
0
48
255
0
48
255
0
48
255
0
48
255
0
48
255
0
48
255
0
48
255
0
48
255
0
48
255
0
66
244
255
255
0
255
255
0
255
255
0
255
255
0
255
255
0
255
255
0
0
44
255
0
48
255
0
48
255
0
48
255
0
48
255
0
48
255
0
48
255
0
48
255
0
48
255
0
48
255
0
48
255
0
48
255
0
48
255
0
48
255
0
48
255
0
48
255
0
48
255
0
48
255
0
48
255
0
48
255
0
48
255
0
48
255
0
48
255
0
48
255
0
48
255
0
48
255
0
48
255
0
48
255
0
48
255
0
48
255
0
48
255
0
48
255
0
48
255
0
48
255
0
48
255
0
48
255
0
48
255
0
48
255
0
48
255
0
48
255
0
48
255
0
66
244
255
255
0
255
255
0
255
255
0
255
255
0
255
255
0
255
255
0
0
44
255
0
48
255
0
48
255
0
48
255
0
48
255
0
48
255
0
48
255
0
48
255
0
48
255
0
48
255
0
48
255
0
48
255
0
48
255
0
48
255
0
48
255
0
48
255
0
48
255
0
48
255
0
48
255
0
48
255
0
48
255
0
48
255
0
48
255
0
48
255
0
48
255
0
48
255
0
48
255
0
48
255
0
48
255
0
48
255
0
48
255
0
48
255
0
48
255
0
48
255
0
48
255
0
48
255
0
48
255
0
48
255
0
48
255
0
48
255
0
48
255
0
66
244
255
255
0
255
255
0
255
255
0
255
255
0
255
255
0
255
255
0
0
44
255
0
48
255
0
48
255
0
48
255
0
48
255
0
48
255
0
48
255
0
48
255
0
48
255
0
48
255
0
48
255
0
48
255
0
48
255
0
48
255
0
48
255
0
48
255
0
48
255
0
48
255
0
48
255
0
48
255
0
48
255
0
48
255
0
48
255
0
48
255
0
48
255
0
48
255
0
48
255
0
44
255
0
44
255
0
44
255
0
44
255
0
44
255
0
44
255
0
44
255
0
44
255
0
44
255
0
44
255
0
44
255
0
44
255
0
44
255
0
44
255
0
63
252
255
255
0
255
255
0
255
255
0
255
255
0
255
255
0
255
255
0
0
37
255
0
40
255
0
44
255
0
44
255
0
44
255
0
44
255
0
44
255
0
44
255
0
44
255
0
44
255
0
44
255
0
44
255
0
44
255
0
44
255
0
44
255
0
44
255
0
44
255
0
44
255
0
44
255
0
44
255
0
44
255
0
44
255
0
44
255
0
44
255
0
44
255
0
44
255
0
44
255
0
81
218
0
81
218
0
81
218
0
81
218
0
81
218
0
81
218
0
81
218
0
81
218
0
81
218
0
81
218
0
81
218
0
81
218
0
81
218
0
81
218
0
96
189
255
255
0
255
255
0
255
255
0
255
255
0
255
255
0
255
255
0
0
77
226
0
81
222
0
81
218
0
81
218
0
81
218
0
81
218
0
81
218
0
81
218
0
81
218
0
81
218
0
81
218
0
81
218
0
81
218
0
81
218
0
81
218
0
81
218
0
81
218
0
81
218
0
81
218
0
81
218
0
81
218
0
81
218
0
81
218
0
81
218
0
81
218
0
81
218
0
81
218
255
255
0
255
255
0
255
255
0
255
255
0
255
255
0
255
255
0
255
255
0
255
255
0
255
255
0
255
255
0
255
255
0
255
255
0
255
255
0
255
255
0
255
255
0
255
255
0
255
255
0
255
255
0
255
255
0
255
255
0
255
255
0
255
255
0
255
255
0
255
255
0
255
255
0
255
255
0
255
255
0
255
255
0
255
255
0
255
255
0
255
255
0
255
255
0
255
255
0
255
255
0
255
255
0
255
255
0
255
255
0
255
255
0
255
255
0
255
255
0
255
255
0
255
255
0
255
255
0
255
255
0
255
255
0
255
255
0
255
255
0
255
255
0
255
255
0
255
255
0
255
255
0
255
255
0
255
255
0
255
255
0
255
255
0
255
255
0
255
255
0
255
255
0
255
255
0
255
255
0
255
255
0
255
255
0
255
255
0
255
255
0
255
255
0
255
255
0
255
255
0
255
255
0
255
255
0
255
255
0
255
255
0
255
255
0
255
255
0
255
255
0
255
255
0
255
255
0
255
255
0
255
255
0
255
255
0
255
255
0
255
255
0
255
255
0
255
255
0
255
255
0
255
255
0
255
255
0
255
255
0
255
255
0
255
255
0
255
255
0
255
255
0
255
255
0
255
255
0
255
255
0
255
255
0
255
255
0
255
255
0
255
255
0
255
255
0
255
255
0
255
255
0
255
255
0
255
255
0
255
255
0
255
255
0
255
255
0
255
255
0
255
255
0
255
255
0
255
255
0
255
255
0
255
255
0
255
255
0
255
255
0
255
255
0
255
255
0
255
255
0
255
255
0
255
255
0
255
255
0
255
255
0
255
255
0
255
255
0
255
255
0
255
255
0
255
255
0
255
255
0
255
255
0
255
255
0
255
255
0
255
255
0
255
255
0
255
255
0
255
255
0
255
255
0
255
255
0
255
255
0
255
255
0
255
255
0
255
255
0
255
255
0
255
255
0
255
255
0
255
255
0
255
255
0
255
255
0
255
255
0
255
255
0
255
255
0
255
255
0
255
255
0
255
255
0
255
255
0
255
255
0
255
255
0
255
255
0
255
255
0
255
255
0
255
255
0
255
255
0
255
255
0
255
255
0
255
255
0
255
255
0
255
255
0
255
255
0
255
255
0
255
255
0
255
255
0
255
255
0
255
255
0
255
255
0
255
255
0
255
255
0
255
255
0
255
255
0
255
255
0
255
255
0
255
255
0
255
255
0
255
255
0
255
255
0
255
255
0
255
255
0
255
255
0
255
255
0
255
255
0
255
255
0
255
255
0
255
255
0
255
255
0
255
255
0
255
255
0
255
255
0
255
255
0
255
255
0
255
255
0
255
255
0
255
255
0
255
255
0
255
255
0
255
255
0
255
255
0
255
255
0
255
255
0
255
255
0
255
255
0
255
255
0
255
255
0
255
255
0
255
255
0
255
255
0
255
255
0
255
255
0
255
255
0
255
255
0
255
255
0
255
255
0
255
255
0
255
255
0
255
255
0
255
255
0
255
255
0
255
255
0
255
255
0
255
255
0
255
255
0
255
255
0
255
255
0
255
255
0
255
255
0
255
255
0
255
255
0
255
255
0
255
255
0
255
255
0
255
255
0
255
255
0
255
255
0
255
255
0
255
255
0
255
255
0
255
255
0
255
255
0
255
255
0
255
255
0
255
255
0
255
255
0
255
255
0
255
255
0
255
255
0
255
255
0
255
255
0
255
255
0
255
255
0
255
255
0
255
255
0
255
255
0
255
255
0
255
255
0
255
255
0
255
255
0
255
255
0
255
255
0
255
255
0
255
255
0
255
255
0
255
255
0
255
255
0
255
255
0
255
255
0
255
255
0
255
255
0
255
255
0
255
255
0
255
255
0
255
255
0
255
255
0
255
255
0
255
255
0
255
255
0
255
255
0
255
255
0
255
255
0
255
255
0
255
255
0
255
255
0
255
255
0
0
92
200
0
92
200
0
92
200
0
92
200
0
92
200
0
92
200
0
92
200
0
92
200
0
92
200
0
92
200
0
92
200
0
92
200
0
92
200
0
92
200
0
107
174
255
255
0
255
255
0
255
255
0
255
255
0
255
255
0
255
255
0
0
85
211
0
89
204
0
92
200
0
92
200
0
92
200
0
92
200
0
92
200
0
92
200
0
92
200
0
92
200
0
92
200
0
92
200
0
92
200
0
92
200
0
92
200
0
92
200
0
92
200
0
92
200
0
92
200
0
92
200
0
92
200
0
92
200
0
92
200
0
92
200
0
92
200
0
92
200
0
92
200
0
48
255
0
48
255
0
48
255
0
48
255
0
48
255
0
48
255
0
48
255
0
48
255
0
48
255
0
48
255
0
48
255
0
48
255
0
48
255
0
48
255
0
66
244
255
255
0
255
255
0
255
255
0
255
255
0
255
255
0
255
255
0
0
44
255
0
48
255
0
48
255
0
48
255
0
48
255
0
48
255
0
48
255
0
48
255
0
48
255
0
48
255
0
48
255
0
48
255
0
48
255
0
48
255
0
48
255
0
48
255
0
48
255
0
48
255
0
48
255
0
48
255
0
48
255
0
48
255
0
48
255
0
48
255
0
48
255
0
48
255
0
48
255
0
48
255
0
48
255
0
48
255
0
48
255
0
48
255
0
48
255
0
48
255
0
48
255
0
48
255
0
48
255
0
48
255
0
48
255
0
48
255
0
48
255
0
66
244
255
255
0
255
255
0
255
255
0
255
255
0
255
255
0
255
255
0
0
44
255
0
48
255
0
48
255
0
48
255
0
48
255
0
48
255
0
48
255
0
48
255
0
48
255
0
48
255
0
48
255
0
48
255
0
48
255
0
48
255
0
48
255
0
48
255
0
48
255
0
48
255
0
48
255
0
48
255
0
48
255
0
48
255
0
48
255
0
48
255
0
48
255
0
48
255
0
48
255
0
48
255
0
48
255
0
48
255
0
48
255
0
48
255
0
48
255
0
48
255
0
48
255
0
48
255
0
48
255
0
48
255
0
48
255
0
48
255
0
48
255
0
66
244
255
255
0
255
255
0
255
255
0
255
255
0
255
255
0
255
255
0
0
44
255
0
48
255
0
48
255
0
48
255
0
48
255
0
48
255
0
48
255
0
48
255
0
48
255
0
48
255
0
48
255
0
48
255
0
48
255
0
48
255
0
48
255
0
48
255
0
48
255
0
48
255
0
48
255
0
48
255
0
48
255
0
48
255
0
48
255
0
48
255
0
48
255
0
48
255
0
48
255
0
48
255
0
48
255
0
48
255
0
48
255
0
48
255
0
48
255
0
48
255
0
48
255
0
48
255
0
48
255
0
48
255
0
48
255
0
48
255
0
48
255
0
66
244
255
255
0
255
255
0
255
255
0
255
255
0
255
255
0
255
255
0
0
44
255
0
48
255
0
48
255
0
48
255
0
48
255
0
48
255
0
48
255
0
48
255
0
48
255
0
48
255
0
48
255
0
48
255
0
48
255
0
48
255
0
48
255
0
48
255
0
48
255
0
48
255
0
48
255
0
48
255
0
48
255
0
48
255
0
48
255
0
48
255
0
48
255
0
48
255
0
48
255
0
48
255
0
48
255
0
48
255
0
48
255
0
48
255
0
48
255
0
48
255
0
48
255
0
48
255
0
48
255
0
48
255
0
48
255
0
48
255
0
48
255
0
66
244
255
255
0
255
255
0
255
255
0
255
255
0
255
255
0
255
255
0
0
44
255
0
48
255
0
48
255
0
48
255
0
48
255
0
48
255
0
48
255
0
48
255
0
48
255
0
48
255
0
48
255
0
48
255
0
48
255
0
48
255
0
48
255
0
48
255
0
48
255
0
48
255
0
48
255
0
48
255
0
48
255
0
48
255
0
48
255
0
48
255
0
48
255
0
48
255
0
48
255
0
48
255
0
48
255
0
48
255
0
48
255
0
48
255
0
48
255
0
48
255
0
48
255
0
48
255
0
48
255
0
48
255
0
48
255
0
48
255
0
48
255
0
66
244
255
255
0
255
255
0
255
255
0
255
255
0
255
255
0
255
255
0
0
44
255
0
48
255
0
48
255
0
48
255
0
48
255
0
48
255
0
48
255
0
48
255
0
48
255
0
48
255
0
48
255
0
48
255
0
48
255
0
48
255
0
48
255
0
48
255
0
48
255
0
48
255
0
48
255
0
48
255
0
48
255
0
48
255
0
48
255
0
48
255
0
48
255
0
48
255
0
48
255
0
48
255
0
48
255
0
48
255
0
48
255
0
48
255
0
48
255
0
48
255
0
48
255
0
48
255
0
48
255
0
48
255
0
48
255
0
48
255
0
48
255
0
66
244
255
255
0
255
255
0
255
255
0
255
255
0
255
255
0
255
255
0
0
44
255
0
48
255
0
48
255
0
48
255
0
48
255
0
48
255
0
48
255
0
48
255
0
48
255
0
48
255
0
48
255
0
48
255
0
48
255
0
48
255
0
48
255
0
48
255
0
48
255
0
48
255
0
48
255
0
48
255
0
48
255
0
48
255
0
48
255
0
48
255
0
48
255
0
48
255
0
48
255
0
48
255
0
48
255
0
48
255
0
48
255
0
48
255
0
48
255
0
48
255
0
48
255
0
48
255
0
48
255
0
48
255
0
48
255
0
48
255
0
48
255
0
66
244
255
255
0
255
255
0
255
255
0
255
255
0
255
255
0
255
255
0
0
44
255
0
48
255
0
48
255
0
48
255
0
48
255
0
48
255
0
48
255
0
48
255
0
48
255
0
48
255
0
48
255
0
48
255
0
48
255
0
48
255
0
48
255
0
48
255
0
48
255
0
48
255
0
48
255
0
48
255
0
48
255
0
48
255
0
48
255
0
48
255
0
48
255
0
48
255
0
48
255
0
48
255
0
48
255
0
48
255
0
48
255
0
48
255
0
48
255
0
48
255
0
48
255
0
48
255
0
48
255
0
48
255
0
48
255
0
48
255
0
48
255
0
66
244
255
255
0
255
255
0
255
255
0
255
255
0
255
255
0
255
255
0
0
44
255
0
48
255
0
48
255
0
48
255
0
48
255
0
48
255
0
48
255
0
48
255
0
48
255
0
48
255
0
48
255
0
48
255
0
48
255
0
48
255
0
48
255
0
48
255
0
48
255
0
48
255
0
48
255
0
48
255
0
48
255
0
48
255
0
48
255
0
48
255
0
48
255
0
48
255
0
48
255
0
48
255
0
48
255
0
48
255
0
48
255
0
48
255
0
48
255
0
48
255
0
48
255
0
48
255
0
48
255
0
48
255
0
48
255
0
48
255
0
48
255
0
66
244
255
255
0
255
255
0
255
255
0
255
255
0
255
255
0
255
255
0
0
44
255
0
48
255
0
48
255
0
48
255
0
48
255
0
48
255
0
48
255
0
48
255
0
48
255
0
48
255
0
48
255
0
48
255
0
48
255
0
48
255
0
48
255
0
48
255
0
48
255
0
48
255
0
48
255
0
48
255
0
48
255
0
48
255
0
48
255
0
48
255
0
48
255
0
48
255
0
48
255
0
48
255
0
48
255
0
48
255
0
48
255
0
48
255
0
48
255
0
48
255
0
48
255
0
48
255
0
48
255
0
48
255
0
48
255
0
48
255
0
48
255
0
66
244
255
255
0
255
255
0
255
255
0
255
255
0
255
255
0
255
255
0
0
44
255
0
48
255
0
48
255
0
48
255
0
48
255
0
48
255
0
48
255
0
48
255
0
48
255
0
48
255
0
48
255
0
48
255
0
48
255
0
48
255
0
48
255
0
48
255
0
48
255
0
48
255
0
48
255
0
48
255
0
48
255
0
48
255
0
48
255
0
48
255
0
48
255
0
48
255
0
48
255
