P3
48 30
255
0
106
167
0
106
167
0
106
167
0
106
167
0
106
167
0
106
167
0
106
167
0
106
167
0
106
167
0
106
167
0
106
167
0
106
167
0
106
167
0
106
167
16
111
159
234
196
14
255
205
0
254
204
0
254
204
0
254
204
0
255
207
0
0
105
170
0
106
167
0
106
167
0
106
167
0
106
167
0
106
167
0
106
167
0
106
167
0
106
167
0
106
167
0
106
167
0
106
167
0
106
167
0
106
167
0
106
167
0
106
167
0
106
167
0
106
167
0
106
167
0
106
167
0
106
167
0
106
167
0
106
167
0
106
167
0
106
167
0
106
167
0
106
167
0
106
167
0
106
167
0
106
167
0
106
167
0
106
167
0
106
167
0
106
167
0
106
167
0
106
167
0
106
167
0
106
167
0
106
167
0
106
167
0
106
167
16
111
159
234
196
14
255
205
0
254
204
0
254
204
0
254
204
0
255
207
0
0
105
170
0
106
167
0
106
167
0
106
167
0
106
167
0
106
167
0
106
167
0
106
167
0
106
167
0
106
167
0
106
167
0
106
167
0
106
167
0
106
167
0
106
167
0
106
167
0
106
167
0
106
167
0
106
167
0
106
167
0
106
167
0
106
167
0
106
167
0
106
167
0
106
167
0
106
167
0
106
167
0
106
167
0
106
167
0
106
167
0
106
167
0
106
167
0
106
167
0
106
167
0
106
167
0
106
167
0
106
167
0
106
167
0
106
167
0
106
167
0
106
167
16
111
159
234
196
14
255
205
0
254
204
0
254
204
0
254
204
0
255
207
0
0
105
170
0
106
167
0
106
167
0
106
167
0
106
167
0
106
167
0
106
167
0
106
167
0
106
167
0
106
167
0
106
167
0
106
167
0
106
167
0
106
167
0
106
167
0
106
167
0
106
167
0
106
167
0
106
167
0
106
167
0
106
167
0
106
167
0
106
167
0
106
167
0
106
167
0
106
167
0
106
167
0
106
167
0
106
167
0
106
167
0
106
167
0
106
167
0
106
167
0
106
167
0
106
167
0
106
167
0
106
167
0
106
167
0
106
167
0
106
167
0
106
167
16
111
159
234
196
14
255
205
0
254
204
0
254
204
0
254
204
0
255
207
0
0
105
170
0
106
167
0
106
167
0
106
167
0
106
167
0
106
167
0
106
167
0
106
167
0
106
167
0
106
167
0
106
167
0
106
167
0
106
167
0
106
167
0
106
167
0
106
167
0
106
167
0
106
167
0
106
167
0
106
167
0
106
167
0
106
167
0
106
167
0
106
167
0
106
167
0
106
167
0
106
167
0
106
167
0
106
167
0
106
167
0
106
167
0
106
167
0
106
167
0
106
167
0
106
167
0
106
167
0
106
167
0
106
167
0
106
167
0
106
167
0
106
167
16
111
159
234
196
14
255
205
0
254
204
0
254
204
0
254
204
0
255
207
0
0
105
170
0
106
167
0
106
167
0
106
167
0
106
167
0
106
167
0
106
167
0
106
167
0
106
167
0
106
167
0
106
167
0
106
167
0
106
167
0
106
167
0
106
167
0
106
167
0
106
167
0
106
167
0
106
167
0
106
167
0
106
167
0
106
167
0
106
167
0
106
167
0
106
167
0
106
167
0
106
167
0
106
167
0
106
167
0
106
167
0
106
167
0
106
167
0
106
167
0
106
167
0
106
167
0
106
167
0
106
167
0
106
167
0
106
167
0
106
167
0
106
167
16
111
159
234
196
14
255
205
0
254
204
0
254
204
0
254
204
0
255
207
0
0
105
170
0
106
167
0
106
167
0
106
167
0
106
167
0
106
167
0
106
167
0
106
167
0
106
167
0
106
167
0
106
167
0
106
167
0
106
167
0
106
167
0
106
167
0
106
167
0
106
167
0
106
167
0
106
167
0
106
167
0
106
167
0
106
167
0
106
167
0
106
167
0
106
167
0
106
167
0
106
167
0
106
167
0
106
167
0
106
167
0
106
167
0
106
167
0
106
167
0
106
167
0
106
167
0
106
167
0
106
167
0
106
167
0
106
167
0
106
167
0
106
167
16
111
159
234
196
14
255
205
0
254
204
0
254
204
0
254
204
0
255
207
0
0
105
170
0
106
167
0
106
167
0
106
167
0
106
167
0
106
167
0
106
167
0
106
167
0
106
167
0
106
167
0
106
167
0
106
167
0
106
167
0
106
167
0
106
167
0
106
167
0
106
167
0
106
167
0
106
167
0
106
167
0
106
167
0
106
167
0
106
167
0
106
167
0
106
167
0
106
167
0
106
167
0
106
167
0
106
167
0
106
167
0
106
167
0
106
167
0
106
167
0
106
167
0
106
167
0
106
167
0
106
167
0
106
167
0
106
167
0
106
167
0
106
167
16
111
159
234
196
14
255
205
0
254
204
0
254
204
0
254
204
0
255
207
0
0
105
170
0
106
167
0
106
167
0
106
167
0
106
167
0
106
167
0
106
167
0
106
167
0
106
167
0
106
167
0
106
167
0
106
167
0
106
167
0
106
167
0
106
167
0
106
167
0
106
167
0
106
167
0
106
167
0
106
167
0
106
167
0
106
167
0
106
167
0
106
167
0
106
167
0
106
167
0
106
167
0
106
167
0
106
167
0
106
167
0
106
167
0
106
167
0
106
167
0
106
167
0
106
167
0
106
167
0
106
167
0
106
167
0
106
167
0
106
167
0
106
167
16
111
159
234
196
14
255
205
0
254
204
0
254
204
0
254
204
0
255
207
0
0
105
170
0
106
167
0
106
167
0
106
167
0
106
167
0
106
167
0
106
167
0
106
167
0
106
167
0
106
167
0
106
167
0
106
167
0
106
167
0
106
167
0
106
167
0
106
167
0
106
167
0
106
167
0
106
167
0
106
167
0
106
167
0
106
167
0
106
167
0
106
167
0
106
167
0
106
167
0
106
167
0
106
167
0
106
167
0
106
167
0
106
167
0
106
167
0
106
167
0
106
167
0
106
167
0
106
167
0
106
167
0
106
167
0
106
167
0
106
167
0
106
167
16
111
159
234
196
14
255
205
0
254
204
0
254
204
0
254
204
0
255
207
0
0
105
170
0
106
167
0
106
167
0
106
167
0
106
167
0
106
167
0
106
167
0
106
167
0
106
167
0
106
167
0
106
167
0
106
167
0
106
167
0
106
167
0
106
167
0
106
167
0
106
167
0
106
167
0
106
167
0
106
167
0
106
167
0
106
167
0
106
167
0
106
167
0
106
167
0
106
167
0
106
167
0
105
169
0
105
169
0
105
169
0
105
169
0
105
169
0
105
169
0
105
169
0
105
169
0
105
169
0
105
169
0
105
169
0
105
169
0
105
169
0
105
169
12
110
161
233
195
14
255
205
0
254
204
0
254
204
0
254
204
0
255
208
0
0
103
172
0
104
170
0
105
169
0
105
169
0
105
169
0
105
169
0
105
169
0
105
169
0
105
169
0
105
169
0
105
169
0
105
169
0
105
169
0
105
169
0
105
169
0
105
169
0
105
169
0
105
169
0
105
169
0
105
169
0
105
169
0
105
169
0
105
169
0
105
169
0
105
169
0
105
169
0
105
169
24
115
152
24
115
152
24
115
152
24
115
152
24
115
152
24
115
152
24
115
152
24
115
152
24
115
152
24
115
152
24
115
152
24
115
152
24
115
152
24
115
152
37
119
144
236
197
12
255
205
0
254
204
0
254
204
0
254
204
0
255
207
0
21
114
154
23
115
153
24
115
152
24
115
152
24
115
152
24
115
152
24
115
152
24
115
152
24
115
152
24
115
152
24
115
152
24
115
152
24
115
152
24
115
152
24
115
152
24
115
152
24
115
152
24
115
152
24
115
152
24
115
152
24
115
152
24
115
152
24
115
152
24
115
152
24
115
152
24
115
152
24
115
152
238
198
11
238
198
11
238
198
11
238
198
11
238
198
11
238
198
11
238
198
11
238
198
11
238
198
11
238
198
11
238
198
11
238
198
11
238
198
11
238
198
11
239
199
11
253
203
1
254
204
0
254
204
0
254
204
0
254
204
0
254
204
0
238
198
11
238
198
11
238
198
11
238
198
11
238
198
11
238
198
11
238
198
11
238
198
11
238
198
11
238
198
11
238
198
11
238
198
11
238
198
11
238
198
11
238
198
11
238
198
11
238
198
11
238
198
11
238
198
11
238
198
11
238
198
11
238
198
11
238
198
11
238
198
11
238
198
11
238
198
11
238
198
11
254
204
0
254
204
0
254
204
0
254
204
0
254
204
0
254
204
0
254
204
0
254
204
0
254
204
0
254
204
0
254
204
0
254
204
0
254
204
0
254
204
0
254
204
0
254
204
0
254
204
0
254
204
0
254
204
0
254
204
0
254
204
0
254
204
0
254
204
0
254
204
0
254
204
0
254
204
0
254
204
0
254
204
0
254
204
0
254
204
0
254
204
0
254
204
0
254
204
0
254
204
0
254
204
0
254
204
0
254
204
0
254
204
0
254
204
0
254
204
0
254
204
0
254
204
0
254
204
0
254
204
0
254
204
0
254
204
0
254
204
0
254
204
0
254
204
0
254
204
0
254
204
0
254
204
0
254
204
0
254
204
0
254
204
0
254
204
0
254
204
0
254
204
0
254
204
0
254
204
0
254
204
0
254
204
0
254
204
0
254
204
0
254
204
0
254
204
0
254
204
0
254
204
0
254
204
0
254
204
0
254
204
0
254
204
0
254
204
0
254
204
0
254
204
0
254
204
0
254
204
0
254
204
0
254
204
0
254
204
0
254
204
0
254
204
0
254
204
0
254
204
0
254
204
0
254
204
0
254
204
0
254
204
0
254
204
0
254
204
0
254
204
0
254
204
0
254
204
0
254
204
0
254
204
0
254
204
0
254
204
0
254
204
0
254
204
0
254
204
0
254
204
0
254
204
0
254
204
0
254
204
0
254
204
0
254
204
0
254
204
0
254
204
0
254
204
0
254
204
0
254
204
0
254
204
0
254
204
0
254
204
0
254
204
0
254
204
0
254
204
0
254
204
0
254
204
0
254
204
0
254
204
0
254
204
0
254
204
0
254
204
0
254
204
0
254
204
0
254
204
0
254
204
0
254
204
0
254
204
0
254
204
0
254
204
0
254
204
0
254
204
0
254
204
0
254
204
0
254
204
0
254
204
0
254
204
0
254
204
0
254
204
0
254
204
0
254
204
0
254
204
0
255
206
0
255
206
0
255
206
0
255
206
0
255
206
0
255
206
0
255
206
0
255
206
0
255
206
0
255
206
0
255
206
0
255
206
0
255
206
0
255
206
0
255
206
0
254
204
0
254
204
0
254
204
0
254
204
0
254
204
0
254
204
0
255
206
0
255
206
0
255
206
0
255
206
0
255
206
0
255
206
0
255
206
0
255
206
0
255
206
0
255
206
0
255
206
0
255
206
0
255
206
0
255
206
0
255
206
0
255
206
0
255
206
0
255
206
0
255
206
0
255
206
0
255
206
0
255
206
0
255
206
0
255
206
0
255
206
0
255
206
0
255
206
0
217
190
25
217
190
25
217
190
25
217
190
25
217
190
25
217
190
25
217
190
25
217
190
25
217
190
25
217
190
25
217
190
25
217
190
25
217
190
25
217
190
25
218
190
24
251
203
2
254
204
0
254
204
0
254
204
0
254
204
0
254
205
0
216
190
25
216
190
25
217
190
25
217
190
25
217
190
25
217
190
25
217
190
25
217
190
25
217
190
25
217
190
25
217
190
25
217
190
25
217
190
25
217
190
25
217
190
25
217
190
25
217
190
25
217
190
25
217
190
25
217
190
25
217
190
25
217
190
25
217
190
25
217
190
25
217
190
25
217
190
25
217
190
25
30
118
147
30
118
147
30
118
147
30
118
147
30
118
147
30
118
147
30
118
147
30
118
147
30
118
147
30
118
147
30
118
147
30
118
147
30
118
147
30
118
147
43
122
140
236
197
12
255
205
0
254
204
0
254
204
0
254
204
0
255
207
0
27
116
150
29
117
148
30
118
147
30
118
147
30
118
147
30
118
147
30
118
147
30
118
147
30
118
147
30
118
147
30
118
147
30
118
147
30
118
147
30
118
147
30
118
147
30
118
147
30
118
147
30
118
147
30
118
147
30
118
147
30
118
147
30
118
147
30
118
147
30
118
147
30
118
147
30
118
147
30
118
147
0
106
167
0
106
167
0
106
167
0
106
167
0
106
167
0
106
167
0
106
167
0
106
167
0
106
167
0
106
167
0
106
167
0
106
167
0
106
167
0
106
167
15
111
159
233
196
14
255
205
0
254
204
0
254
204
0
254
204
0
255
207
0
0
105
170
0
106
168
0
106
167
0
106
167
0
106
167
0
106
167
0
106
167
0
106
167
0
106
167
0
106
167
0
106
167
0
106
167
0
106
167
0
106
167
0
106
167
0
106
167
0
106
167
0
106
167
0
106
167
0
106
167
0
106
167
0
106
167
0
106
167
0
106
167
0
106
167
0
106
167
0
106
167
0
106
167
0
106
167
0
106
167
0
106
167
0
106
167
0
106
167
0
106
167
0
106
167
0
106
167
0
106
167
0
106
167
0
106
167
0
106
167
0
106
167
16
111
159
234
196
14
255
205
0
254
204
0
254
204
0
254
204
0
255
207
0
0
105
170
0
106
167
0
106
167
0
106
167
0
106
167
0
106
167
0
106
167
0
106
167
0
106
167
0
106
167
0
106
167
0
106
167
0
106
167
0
106
167
0
106
167
0
106
167
0
106
167
0
106
167
0
106
167
0
106
167
0
106
167
0
106
167
0
106
167
0
106
167
0
106
167
0
106
167
0
106
167
0
106
167
0
106
167
0
106
167
0
106
167
0
106
167
0
106
167
0
106
167
0
106
167
0
106
167
0
106
167
0
106
167
0
106
167
0
106
167
0
106
167
16
111
159
234
196
14
255
205
0
254
204
0
254
204
0
254
204
0
255
207
0
0
105
170
0
106
167
0
106
167
0
106
167
0
106
167
0
106
167
0
106
167
0
106
167
0
106
167
0
106
167
0
106
167
0
106
167
0
106
167
0
106
167
0
106
167
0
106
167
0
106
167
0
106
167
0
106
167
0
106
167
0
106
167
0
106
167
0
106
167
0
106
167
0
106
167
0
106
167
0
106
167
0
106
167
0
106
167
0
106
167
0
106
167
0
106
167
0
106
167
0
106
167
0
106
167
0
106
167
0
106
167
0
106
167
0
106
167
0
106
167
0
106
167
16
111
159
234
196
14
255
205
0
254
204
0
254
204
0
254
204
0
255
207
0
0
105
170
0
106
167
0
106
167
0
106
167
0
106
167
0
106
167
0
106
167
0
106
167
0
106
167
0
106
167
0
106
167
0
106
167
0
106
167
0
106
167
0
106
167
0
106
167
0
106
167
0
106
167
0
106
167
0
106
167
0
106
167
0
106
167
0
106
167
0
106
167
0
106
167
0
106
167
0
106
167
0
106
167
0
106
167
0
106
167
0
106
167
0
106
167
0
106
167
0
106
167
0
106
167
0
106
167
0
106
167
0
106
167
0
106
167
0
106
167
0
106
167
16
111
159
234
196
14
255
205
0
254
204
0
254
204
0
254
204
0
255
207
0
0
105
170
0
106
167
0
106
167
0
106
167
0
106
167
0
106
167
0
106
167
0
106
167
0
106
167
0
106
167
0
106
167
0
106
167
0
106
167
0
106
167
0
106
167
0
106
167
0
106
167
0
106
167
0
106
167
0
106
167
0
106
167
0
106
167
0
106
167
0
106
167
0
106
167
0
106
167
0
106
167
0
106
167
0
106
167
0
106
167
0
106
167
0
106
167
0
106
167
0
106
167
0
106
167
0
106
167
0
106
167
0
106
167
0
106
167
0
106
167
0
106
167
16
111
159
234
196
14
255
205
0
254
204
0
254
204
0
254
204
0
255
207
0
0
105
170
0
106
167
0
106
167
0
106
167
0
106
167
0
106
167
0
106
167
0
106
167
0
106
167
0
106
167
0
106
167
0
106
167
0
106
167
0
106
167
0
106
167
0
106
167
0
106
167
0
106
167
0
106
167
0
106
167
0
106
167
0
106
167
0
106
167
0
106
167
0
106
167
0
106
167
0
106
167
0
106
167
0
106
167
0
106
167
0
106
167
0
106
167
0
106
167
0
106
167
0
106
167
0
106
167
0
106
167
0
106
167
0
106
167
0
106
167
0
106
167
16
111
159
234
196
14
255
205
0
254
204
0
254
204
0
254
204
0
255
207
0
0
105
170
0
106
167
0
106
167
0
106
167
0
106
167
0
106
167
0
106
167
0
106
167
0
106
167
0
106
167
0
106
167
0
106
167
0
106
167
0
106
167
0
106
167
0
106
167
0
106
167
0
106
167
0
106
167
0
106
167
0
106
167
0
106
167
0
106
167
0
106
167
0
106
167
0
106
167
0
106
167
0
106
167
0
106
167
0
106
167
0
106
167
0
106
167
0
106
167
0
106
167
0
106
167
0
106
167
0
106
167
0
106
167
0
106
167
0
106
167
0
106
167
16
111
159
234
196
14
255
205
0
254
204
0
254
204
0
254
204
0
255
207
0
0
105
170
0
106
167
0
106
167
0
106
167
0
106
167
0
106
167
0
106
167
0
106
167
0
106
167
0
106
167
0
106
167
0
106
167
0
106
167
0
106
167
0
106
167
0
106
167
0
106
167
0
106
167
0
106
167
0
106
167
0
106
167
0
106
167
0
106
167
0
106
167
0
106
167
0
106
167
0
106
167
0
106
167
0
106
167
0
106
167
0
106
167
0
106
167
0
106
167
0
106
167
0
106
167
0
106
167
0
106
167
0
106
167
0
106
167
0
106
167
0
106
167
16
111
159
234
196
14
255
205
0
254
204
0
254
204
0
254
204
0
255
207
0
0
105
170
0
106
167
0
106
167
0
106
167
0
106
167
0
106
167
0
106
167
0
106
167
0
106
167
0
106
167
0
106
167
0
106
167
0
106
167
0
106
167
0
106
167
0
106
167
0
106
167
0
106
167
0
106
167
0
106
167
0
106
167
0
106
167
0
106
167
0
106
167
0
106
167
0
106
167
0
106
167
0
106
167
0
106
167
0
106
167
0
106
167
0
106
167
0
106
167
0
106
167
0
106
167
0
106
167
0
106
167
0
106
167
0
106
167
0
106
167
0
106
167
16
111
159
234
196
14
255
205
0
254
204
0
254
204
0
254
204
0
255
207
0
0
105
170
0
106
167
0
106
167
0
106
167
0
106
167
0
106
167
0
106
167
0
106
167
0
106
167
0
106
167
0
106
167
0
106
167
0
106
167
0
106
167
0
106
167
0
106
167
0
106
167
0
106
167
0
106
167
0
106
167
0
106
167
0
106
167
0
106
167
0
106
167
0
106
167
0
106
167
0
106
167
0
106
167
0
106
167
0
106
167
0
106
167
0
106
167
0
106
167
0
106
167
0
106
167
0
106
167
0
106
167
0
106
167
0
106
167
0
106
167
0
106
167
16
111
159
234
196
14
255
205
0
254
204
0
254
204
0
254
204
0
255
207
0
0
105
170
0
106
167
0
106
167
0
106
167
0
106
167
0
106
167
0
106
167
0
106
167
0
106
167
0
106
167
0
106
167
0
106
167
0
106
167
0
106
167
0
106
167
0
106
167
0
106
167
0
106
167
0
106
167
0
106
167
0
106
167
0
106
167
0
106
167
0
106
167
0
106
167
0
106
167
0
106
167
