P3
48 30
255
106
123
132
106
123
132
106
123
132
106
123
132
106
123
132
106
123
132
106
123
132
106
123
132
106
123
132
106
123
132
106
123
132
106
123
132
106
123
132
106
123
132
108
124
130
142
136
108
146
137
106
145
137
106
145
137
106
145
137
106
145
138
106
106
123
132
106
123
132
106
123
132
106
123
132
106
123
132
106
123
132
106
123
132
106
123
132
106
123
132
106
123
132
106
123
132
106
123
132
106
123
132
106
123
132
106
123
132
106
123
132
106
123
132
106
123
132
106
123
132
106
123
132
106
123
132
106
123
132
106
123
132
106
123
132
106
123
132
106
123
132
106
123
132
106
123
132
106
123
132
106
123
132
106
123
132
106
123
132
106
123
132
106
123
132
106
123
132
106
123
132
106
123
132
106
123
132
106
123
132
106
123
132
106
123
132
108
124
130
142
136
108
146
137
106
145
137
106
145
137
106
145
137
106
145
138
106
106
123
132
106
123
132
106
123
132
106
123
132
106
123
132
106
123
132
106
123
132
106
123
132
106
123
132
106
123
132
106
123
132
106
123
132
106
123
132
106
123
132
106
123
132
106
123
132
106
123
132
106
123
132
106
123
132
106
123
132
106
123
132
106
123
132
106
123
132
106
123
132
106
123
132
106
123
132
106
123
132
106
123
132
106
123
132
106
123
132
106
123
132
106
123
132
106
123
132
106
123
132
106
123
132
106
123
132
106
123
132
106
123
132
106
123
132
106
123
132
106
123
132
108
124
130
142
136
108
146
137
106
145
137
106
145
137
106
145
137
106
145
138
106
106
123
132
106
123
132
106
123
132
106
123
132
106
123
132
106
123
132
106
123
132
106
123
132
106
123
132
106
123
132
106
123
132
106
123
132
106
123
132
106
123
132
106
123
132
106
123
132
106
123
132
106
123
132
106
123
132
106
123
132
106
123
132
106
123
132
106
123
132
106
123
132
106
123
132
106
123
132
106
123
132
106
123
132
106
123
132
106
123
132
106
123
132
106
123
132
106
123
132
106
123
132
106
123
132
106
123
132
106
123
132
106
123
132
106
123
132
106
123
132
106
123
132
108
124
130
142
136
108
146
137
106
145
137
106
145
137
106
145
137
106
145
138
106
106
123
132
106
123
132
106
123
132
106
123
132
106
123
132
106
123
132
106
123
132
106
123
132
106
123
132
106
123
132
106
123
132
106
123
132
106
123
132
106
123
132
106
123
132
106
123
132
106
123
132
106
123
132
106
123
132
106
123
132
106
123
132
106
123
132
106
123
132
106
123
132
106
123
132
106
123
132
106
123
132
106
123
132
106
123
132
106
123
132
106
123
132
106
123
132
106
123
132
106
123
132
106
123
132
106
123
132
106
123
132
106
123
132
106
123
132
106
123
132
106
123
132
108
124
130
142
136
108
146
137
106
145
137
106
145
137
106
145
137
106
145
138
106
106
123
132
106
123
132
106
123
132
106
123
132
106
123
132
106
123
132
106
123
132
106
123
132
106
123
132
106
123
132
106
123
132
106
123
132
106
123
132
106
123
132
106
123
132
106
123
132
106
123
132
106
123
132
106
123
132
106
123
132
106
123
132
106
123
132
106
123
132
106
123
132
106
123
132
106
123
132
106
123
132
106
123
132
106
123
132
106
123
132
106
123
132
106
123
132
106
123
132
106
123
132
106
123
132
106
123
132
106
123
132
106
123
132
106
123
132
106
123
132
106
123
132
108
124
130
142
136
108
146
137
106
145
137
106
145
137
106
145
137
106
145
138
106
106
123
132
106
123
132
106
123
132
106
123
132
106
123
132
106
123
132
106
123
132
106
123
132
106
123
132
106
123
132
106
123
132
106
123
132
106
123
132
106
123
132
106
123
132
106
123
132
106
123
132
106
123
132
106
123
132
106
123
132
106
123
132
106
123
132
106
123
132
106
123
132
106
123
132
106
123
132
106
123
132
106
123
132
106
123
132
106
123
132
106
123
132
106
123
132
106
123
132
106
123
132
106
123
132
106
123
132
106
123
132
106
123
132
106
123
132
106
123
132
106
123
132
108
124
130
142
136
108
146
137
106
145
137
106
145
137
106
145
137
106
145
138
106
106
123
132
106
123
132
106
123
132
106
123
132
106
123
132
106
123
132
106
123
132
106
123
132
106
123
132
106
123
132
106
123
132
106
123
132
106
123
132
106
123
132
106
123
132
106
123
132
106
123
132
106
123
132
106
123
132
106
123
132
106
123
132
106
123
132
106
123
132
106
123
132
106
123
132
106
123
132
106
123
132
106
123
132
106
123
132
106
123
132
106
123
132
106
123
132
106
123
132
106
123
132
106
123
132
106
123
132
106
123
132
106
123
132
106
123
132
106
123
132
106
123
132
108
124
130
142
136
108
146
137
106
145
137
106
145
137
106
145
137
106
145
138
106
106
123
132
106
123
132
106
123
132
106
123
132
106
123
132
106
123
132
106
123
132
106
123
132
106
123
132
106
123
132
106
123
132
106
123
132
106
123
132
106
123
132
106
123
132
106
123
132
106
123
132
106
123
132
106
123
132
106
123
132
106
123
132
106
123
132
106
123
132
106
123
132
106
123
132
106
123
132
106
123
132
106
123
132
106
123
132
106
123
132
106
123
132
106
123
132
106
123
132
106
123
132
106
123
132
106
123
132
106
123
132
106
123
132
106
123
132
106
123
132
106
123
132
108
124
130
142
136
108
146
137
106
145
137
106
145
137
106
145
137
106
145
138
106
106
123
132
106
123
132
106
123
132
106
123
132
106
123
132
106
123
132
106
123
132
106
123
132
106
123
132
106
123
132
106
123
132
106
123
132
106
123
132
106
123
132
106
123
132
106
123
132
106
123
132
106
123
132
106
123
132
106
123
132
106
123
132
106
123
132
106
123
132
106
123
132
106
123
132
106
123
132
106
123
132
106
123
132
106
123
132
106
123
132
106
123
132
106
123
132
106
123
132
106
123
132
106
123
132
106
123
132
106
123
132
106
123
132
106
123
132
106
123
132
106
123
132
108
124
130
142
136
108
146
137
106
145
137
106
145
137
106
145
137
106
145
138
106
106
123
132
106
123
132
106
123
132
106
123
132
106
123
132
106
123
132
106
123
132
106
123
132
106
123
132
106
123
132
106
123
132
106
123
132
106
123
132
106
123
132
106
123
132
106
123
132
106
123
132
106
123
132
106
123
132
106
123
132
106
123
132
106
123
132
106
123
132
106
123
132
106
123
132
106
123
132
106
123
132
105
123
132
105
123
132
105
123
132
105
123
132
105
123
132
105
123
132
105
123
132
105
123
132
105
123
132
105
123
132
105
123
132
105
123
132
105
123
132
105
123
132
108
124
131
142
136
108
146
137
106
145
137
106
145
137
106
145
137
106
145
138
106
105
123
133
105
123
132
105
123
132
105
123
132
105
123
132
105
123
132
105
123
132
105
123
132
105
123
132
105
123
132
105
123
132
105
123
132
105
123
132
105
123
132
105
123
132
105
123
132
105
123
132
105
123
132
105
123
132
105
123
132
105
123
132
105
123
132
105
123
132
105
123
132
105
123
132
105
123
132
105
123
132
110
124
130
110
124
130
110
124
130
110
124
130
110
124
130
110
124
130
110
124
130
110
124
130
110
124
130
110
124
130
110
124
130
110
124
130
110
124
130
110
124
130
112
124
128
143
136
108
145
137
106
145
137
106
145
137
106
145
137
106
145
138
106
109
124
130
110
124
130
110
124
130
110
124
130
110
124
130
110
124
130
110
124
130
110
124
130
110
124
130
110
124
130
110
124
130
110
124
130
110
124
130
110
124
130
110
124
130
110
124
130
110
124
130
110
124
130
110
124
130
110
124
130
110
124
130
110
124
130
110
124
130
110
124
130
110
124
130
110
124
130
110
124
130
142
137
108
142
137
108
142
137
108
142
137
108
142
137
108
142
137
108
142
137
108
142
137
108
142
137
108
142
137
108
142
137
108
142
137
108
142
137
108
142
137
108
143
137
108
145
137
106
145
137
106
145
137
106
145
137
106
145
137
106
145
137
106
142
137
108
142
137
108
142
137
108
142
137
108
142
137
108
142
137
108
142
137
108
142
137
108
142
137
108
142
137
108
142
137
108
142
137
108
142
137
108
142
137
108
142
137
108
142
137
108
142
137
108
142
137
108
142
137
108
142
137
108
142
137
108
142
137
108
142
137
108
142
137
108
142
137
108
142
137
108
142
137
108
145
137
106
145
137
106
145
137
106
145
137
106
145
137
106
145
137
106
145
137
106
145
137
106
145
137
106
145
137
106
145
137
106
145
137
106
145
137
106
145
137
106
145
137
106
145
137
106
145
137
106
145
137
106
145
137
106
145
137
106
145
137
106
145
137
106
145
137
106
145
137
106
145
137
106
145
137
106
145
137
106
145
137
106
145
137
106
145
137
106
145
137
106
145
137
106
145
137
106
145
137
106
145
137
106
145
137
106
145
137
106
145
137
106
145
137
106
145
137
106
145
137
106
145
137
106
145
137
106
145
137
106
145
137
106
145
137
106
145
137
106
145
137
106
145
137
106
145
137
106
145
137
106
145
137
106
145
137
106
145
137
106
145
137
106
145
137
106
145
137
106
145
137
106
145
137
106
145
137
106
145
137
106
145
137
106
145
137
106
145
137
106
145
137
106
145
137
106
145
137
106
145
137
106
145
137
106
145
137
106
145
137
106
145
137
106
145
137
106
145
137
106
145
137
106
145
137
106
145
137
106
145
137
106
145
137
106
145
137
106
145
137
106
145
137
106
145
137
106
145
137
106
145
137
106
145
137
106
145
137
106
145
137
106
145
137
106
145
137
106
145
137
106
145
137
106
145
137
106
145
137
106
145
137
106
145
137
106
145
137
106
145
137
106
145
137
106
145
137
106
145
137
106
145
137
106
145
137
106
145
137
106
145
137
106
145
137
106
145
137
106
145
137
106
145
137
106
145
137
106
145
137
106
145
137
106
145
137
106
145
137
106
145
137
106
145
137
106
145
137
106
145
137
106
145
137
106
145
137
106
145
137
106
145
137
106
145
137
106
145
137
106
145
137
106
145
137
106
145
137
106
145
137
106
145
137
106
145
137
106
145
137
106
145
137
106
145
137
106
145
137
106
145
137
106
145
137
106
145
137
106
145
137
106
145
137
106
145
137
106
145
137
106
145
137
106
145
137
106
145
137
106
146
137
106
146
137
106
146
137
106
146
137
106
146
137
106
146
137
106
146
137
106
146
137
106
146
137
106
146
137
106
146
137
106
146
137
106
146
137
106
146
137
106
146
137
106
145
137
106
145
137
106
145
137
106
145
137
106
145
137
106
145
137
106
146
137
106
146
137
106
146
137
106
146
137
106
146
137
106
146
137
106
146
137
106
146
137
106
146
137
106
146
137
106
146
137
106
146
137
106
146
137
106
146
137
106
146
137
106
146
137
106
146
137
106
146
137
106
146
137
106
146
137
106
146
137
106
146
137
106
146
137
106
146
137
106
146
137
106
146
137
106
146
137
106
139
135
110
139
135
110
139
135
110
139
135
110
139
135
110
139
135
110
139
135
110
139
135
110
139
135
110
139
135
110
139
135
110
139
135
110
139
135
110
139
135
110
139
135
110
145
137
107
145
137
106
145
137
106
145
137
106
145
137
106
145
137
106
139
135
110
139
135
110
139
135
110
139
135
110
139
135
110
139
135
110
139
135
110
139
135
110
139
135
110
139
135
110
139
135
110
139
135
110
139
135
110
139
135
110
139
135
110
139
135
110
139
135
110
139
135
110
139
135
110
139
135
110
139
135
110
139
135
110
139
135
110
139
135
110
139
135
110
139
135
110
139
135
110
111
125
129
111
125
129
111
125
129
111
125
129
111
125
129
111
125
129
111
125
129
111
125
129
111
125
129
111
125
129
111
125
129
111
125
129
111
125
129
111
125
129
113
125
128
142
136
108
145
137
106
145
137
106
145
137
106
145
137
106
145
138
106
111
125
129
110
125
129
111
125
129
111
125
129
111
125
129
111
125
129
111
125
129
111
125
129
111
125
129
111
125
129
111
125
129
111
125
129
111
125
129
111
125
129
111
125
129
111
125
129
111
125
129
111
125
129
111
125
129
111
125
129
111
125
129
111
125
129
111
125
129
111
125
129
111
125
129
111
125
129
111
125
129
106
123
132
106
123
132
106
123
132
106
123
132
106
123
132
106
123
132
106
123
132
106
123
132
106
123
132
106
123
132
106
123
132
106
123
132
106
123
132
106
123
132
108
124
130
142
136
108
146
137
106
145
137
106
145
137
106
145
137
106
145
138
106
106
123
132
106
123
132
106
123
132
106
123
132
106
123
132
106
123
132
106
123
132
106
123
132
106
123
132
106
123
132
106
123
132
106
123
132
106
123
132
106
123
132
106
123
132
106
123
132
106
123
132
106
123
132
106
123
132
106
123
132
106
123
132
106
123
132
106
123
132
106
123
132
106
123
132
106
123
132
106
123
132
106
123
132
106
123
132
106
123
132
106
123
132
106
123
132
106
123
132
106
123
132
106
123
132
106
123
132
106
123
132
106
123
132
106
123
132
106
123
132
106
123
132
108
124
130
142
136
108
146
137
106
145
137
106
145
137
106
145
137
106
145
138
106
106
123
132
106
123
132
106
123
132
106
123
132
106
123
132
106
123
132
106
123
132
106
123
132
106
123
132
106
123
132
106
123
132
106
123
132
106
123
132
106
123
132
106
123
132
106
123
132
106
123
132
106
123
132
106
123
132
106
123
132
106
123
132
106
123
132
106
123
132
106
123
132
106
123
132
106
123
132
106
123
132
106
123
132
106
123
132
106
123
132
106
123
132
106
123
132
106
123
132
106
123
132
106
123
132
106
123
132
106
123
132
106
123
132
106
123
132
106
123
132
106
123
132
108
124
130
142
136
108
146
137
106
145
137
106
145
137
106
145
137
106
145
138
106
106
123
132
106
123
132
106
123
132
106
123
132
106
123
132
106
123
132
106
123
132
106
123
132
106
123
132
106
123
132
106
123
132
106
123
132
106
123
132
106
123
132
106
123
132
106
123
132
106
123
132
106
123
132
106
123
132
106
123
132
106
123
132
106
123
132
106
123
132
106
123
132
106
123
132
106
123
132
106
123
132
106
123
132
106
123
132
106
123
132
106
123
132
106
123
132
106
123
132
106
123
132
106
123
132
106
123
132
106
123
132
106
123
132
106
123
132
106
123
132
106
123
132
108
124
130
142
136
108
146
137
106
145
137
106
145
137
106
145
137
106
145
138
106
106
123
132
106
123
132
106
123
132
106
123
132
106
123
132
106
123
132
106
123
132
106
123
132
106
123
132
106
123
132
106
123
132
106
123
132
106
123
132
106
123
132
106
123
132
106
123
132
106
123
132
106
123
132
106
123
132
106
123
132
106
123
132
106
123
132
106
123
132
106
123
132
106
123
132
106
123
132
106
123
132
106
123
132
106
123
132
106
123
132
106
123
132
106
123
132
106
123
132
106
123
132
106
123
132
106
123
132
106
123
132
106
123
132
106
123
132
106
123
132
106
123
132
108
124
130
142
136
108
146
137
106
145
137
106
145
137
106
145
137
106
145
138
106
106
123
132
106
123
132
106
123
132
106
123
132
106
123
132
106
123
132
106
123
132
106
123
132
106
123
132
106
123
132
106
123
132
106
123
132
106
123
132
106
123
132
106
123
132
106
123
132
106
123
132
106
123
132
106
123
132
106
123
132
106
123
132
106
123
132
106
123
132
106
123
132
106
123
132
106
123
132
106
123
132
106
123
132
106
123
132
106
123
132
106
123
132
106
123
132
106
123
132
106
123
132
106
123
132
106
123
132
106
123
132
106
123
132
106
123
132
106
123
132
106
123
132
108
124
130
142
136
108
146
137
106
145
137
106
145
137
106
145
137
106
145
138
106
106
123
132
106
123
132
106
123
132
106
123
132
106
123
132
106
123
132
106
123
132
106
123
132
106
123
132
106
123
132
106
123
132
106
123
132
106
123
132
106
123
132
106
123
132
106
123
132
106
123
132
106
123
132
106
123
132
106
123
132
106
123
132
106
123
132
106
123
132
106
123
132
106
123
132
106
123
132
106
123
132
106
123
132
106
123
132
106
123
132
106
123
132
106
123
132
106
123
132
106
123
132
106
123
132
106
123
132
106
123
132
106
123
132
106
123
132
106
123
132
106
123
132
108
124
130
142
136
108
146
137
106
145
137
106
145
137
106
145
137
106
145
138
106
106
123
132
106
123
132
106
123
132
106
123
132
106
123
132
106
123
132
106
123
132
106
123
132
106
123
132
106
123
132
106
123
132
106
123
132
106
123
132
106
123
132
106
123
132
106
123
132
106
123
132
106
123
132
106
123
132
106
123
132
106
123
132
106
123
132
106
123
132
106
123
132
106
123
132
106
123
132
106
123
132
106
123
132
106
123
132
106
123
132
106
123
132
106
123
132
106
123
132
106
123
132
106
123
132
106
123
132
106
123
132
106
123
132
106
123
132
106
123
132
106
123
132
108
124
130
142
136
108
146
137
106
145
137
106
145
137
106
145
137
106
145
138
106
106
123
132
106
123
132
106
123
132
106
123
132
106
123
132
106
123
132
106
123
132
106
123
132
106
123
132
106
123
132
106
123
132
106
123
132
106
123
132
106
123
132
106
123
132
106
123
132
106
123
132
106
123
132
106
123
132
106
123
132
106
123
132
106
123
132
106
123
132
106
123
132
106
123
132
106
123
132
106
123
132
106
123
132
106
123
132
106
123
132
106
123
132
106
123
132
106
123
132
106
123
132
106
123
132
106
123
132
106
123
132
106
123
132
106
123
132
106
123
132
106
123
132
108
124
130
142
136
108
146
137
106
145
137
106
145
137
106
145
137
106
145
138
106
106
123
132
106
123
132
106
123
132
106
123
132
106
123
132
106
123
132
106
123
132
106
123
132
106
123
132
106
123
132
106
123
132
106
123
132
106
123
132
106
123
132
106
123
132
106
123
132
106
123
132
106
123
132
106
123
132
106
123
132
106
123
132
106
123
132
106
123
132
106
123
132
106
123
132
106
123
132
106
123
132
106
123
132
106
123
132
106
123
132
106
123
132
106
123
132
106
123
132
106
123
132
106
123
132
106
123
132
106
123
132
106
123
132
106
123
132
106
123
132
106
123
132
108
124
130
142
136
108
146
137
106
145
137
106
145
137
106
145
137
106
145
138
106
106
123
132
106
123
132
106
123
132
106
123
132
106
123
132
106
123
132
106
123
132
106
123
132
106
123
132
106
123
132
106
123
132
106
123
132
106
123
132
106
123
132
106
123
132
106
123
132
106
123
132
106
123
132
106
123
132
106
123
132
106
123
132
106
123
132
106
123
132
106
123
132
106
123
132
106
123
132
106
123
132
106
123
132
106
123
132
106
123
132
106
123
132
106
123
132
106
123
132
106
123
132
106
123
132
106
123
132
106
123
132
106
123
132
106
123
132
106
123
132
106
123
132
108
124
130
142
136
108
146
137
106
145
137
106
145
137
106
145
137
106
145
138
106
106
123
132
106
123
132
106
123
132
106
123
132
106
123
132
106
123
132
106
123
132
106
123
132
106
123
132
106
123
132
106
123
132
106
123
132
106
123
132
106
123
132
106
123
132
106
123
132
106
123
132
106
123
132
106
123
132
106
123
132
106
123
132
106
123
132
106
123
132
106
123
132
106
123
132
106
123
132
106
123
132
